<svg width="39" height="33" viewBox="0 0 39 33" fill="none" xmlns="http://www.w3.org/2000/svg">
<path d="M39 21.0943C38.9965 24.2508 37.7465 27.277 35.5244 29.509C33.3022 31.741 30.2893 32.9964 27.1468 33H10.3228C10.0186 33 9.7268 32.8786 9.51167 32.6625C9.29655 32.4465 9.1757 32.1534 9.1757 31.8478C9.1757 31.5423 9.29655 31.2492 9.51167 31.0331C9.7268 30.8171 10.0186 30.6957 10.3228 30.6957H27.1468C29.682 30.6957 32.1134 29.6841 33.906 27.8835C35.6987 26.0829 36.7058 23.6407 36.7058 21.0943C36.7058 18.5478 35.6987 16.1057 33.906 14.3051C32.1134 12.5045 29.682 11.4929 27.1468 11.4929H3.9163L11.1334 18.7439C11.2461 18.8494 11.3365 18.9766 11.3992 19.1179C11.4619 19.2592 11.4956 19.4118 11.4983 19.5665C11.501 19.7212 11.4727 19.8749 11.415 20.0183C11.3573 20.1618 11.2714 20.2921 11.1625 20.4015C11.0536 20.5109 10.9238 20.5972 10.781 20.6551C10.6382 20.7131 10.4852 20.7415 10.3312 20.7388C10.1771 20.7361 10.0252 20.7022 9.88454 20.6392C9.74383 20.5763 9.61719 20.4855 9.51218 20.3723L0.33547 11.1549C0.120658 10.9389 0 10.6461 0 10.3407C0 10.0354 0.120658 9.74258 0.33547 9.52655L9.51218 0.309228C9.72963 0.10571 10.0172 -0.00508699 10.3144 0.000179503C10.6116 0.005446 10.8951 0.126365 11.1053 0.337461C11.3155 0.548558 11.4358 0.833351 11.4411 1.13184C11.4463 1.43033 11.336 1.71921 11.1334 1.93762L3.9163 9.18858H27.1468C30.2893 9.19214 33.3022 10.4476 35.5244 12.6796C37.7465 14.9116 38.9965 17.9378 39 21.0943Z" fill="white"/>
</svg>
