<svg width="49" height="50" viewBox="0 0 49 50" fill="none" xmlns="http://www.w3.org/2000/svg">
<path d="M48.4154 13.9655C48.1941 13.7535 47.9259 13.5992 47.6334 13.5157C47.341 13.4321 47.033 13.4218 46.7358 13.4856C46.3699 12.1459 45.7477 10.893 44.9049 9.79885C44.0621 8.70476 43.0153 7.79104 41.8247 7.11019C40.6342 6.42934 39.3233 5.99478 37.9673 5.83147C36.6113 5.66817 35.2371 5.77933 33.9234 6.15858C33.0966 4.32098 31.7691 2.76379 30.0988 1.67207C28.4285 0.580346 26.4855 0 24.5008 0C22.5161 0 20.5731 0.580346 18.9028 1.67207C17.2324 2.76379 15.905 4.32098 15.0781 6.15858C13.7648 5.77884 12.3907 5.66709 11.0349 5.82976C9.67901 5.99242 8.36805 6.4263 7.1773 7.10646C5.98655 7.78662 4.93946 8.69967 4.09618 9.79316C3.2529 10.8867 2.63004 12.1391 2.26337 13.4784C1.95379 13.4137 1.6332 13.4293 1.33111 13.5239C1.02901 13.6184 0.755109 13.7888 0.534594 14.0193C0.314079 14.2499 0.154035 14.5332 0.0691885 14.8433C-0.0156584 15.1533 -0.0225839 15.4801 0.0490488 15.7936L7.24794 46.9443C7.44281 47.7865 7.91134 48.537 8.57752 49.0739C9.24371 49.6109 10.0685 49.9029 10.9181 49.9025H38.0835C38.9331 49.9029 39.7578 49.6109 40.424 49.0739C41.0902 48.537 41.5587 47.7865 41.7536 46.9443L48.9501 15.7936C49.0252 15.4679 49.0154 15.1278 48.9216 14.8071C48.8278 14.4864 48.6533 14.1963 48.4154 13.9655ZM10.9181 46.0638L4.45648 18.0992L13.3726 20.6927L16.6941 46.0638H10.9181ZM23.1015 13.8575L14.9769 17.1683L5.89108 14.5245C6.15409 13.5554 6.62731 12.6589 7.27584 11.9009C7.92438 11.1429 8.73169 10.5429 9.63825 10.145C10.5448 9.74715 11.5275 9.5616 12.5138 9.60204C13.5002 9.64248 14.465 9.9079 15.3373 10.3787C15.5938 10.5173 15.8783 10.5936 16.1686 10.6017C16.4588 10.6099 16.747 10.5496 17.0106 10.4255C17.2742 10.3015 17.5061 10.1171 17.6882 9.88678C17.8703 9.65642 17.9977 9.38631 18.0604 9.09755C18.3866 7.60629 19.2022 6.27282 20.3726 5.31714C21.543 4.36145 22.9983 3.84065 24.4984 3.84065C25.9985 3.84065 27.4538 4.36145 28.6242 5.31714C29.7947 6.27282 30.6102 7.60629 30.9364 9.09755C30.9991 9.38631 31.1265 9.65642 31.3086 9.88678C31.4907 10.1171 31.7226 10.3015 31.9862 10.4255C32.2498 10.5496 32.538 10.6099 32.8283 10.6017C33.1185 10.5936 33.403 10.5173 33.6596 10.3787C34.532 9.90699 35.4973 9.64086 36.4842 9.59994C37.4711 9.55903 38.4544 9.74438 39.3616 10.1423C40.2688 10.5403 41.0766 11.1406 41.7255 11.8991C42.3743 12.6576 42.8476 13.5548 43.1105 14.5245L34.0271 17.1635L25.9024 13.8527C25.0028 13.4878 23.9999 13.4895 23.1015 13.8575ZM38.0835 46.0638H32.3074L35.6289 20.6927L44.5451 18.0992L38.0835 46.0638Z" fill="#544747"/>
</svg>
