<svg width="84" height="84" viewBox="0 0 84 84" fill="none" xmlns="http://www.w3.org/2000/svg">
<path d="M45.5071 28.0245C56.5986 28.0245 62.8881 35.364 63.8016 44.2295H64.0816C65.7766 44.2272 67.4553 44.5589 69.0221 45.2055C70.5889 45.8521 72.0129 46.801 73.2128 47.998C74.4128 49.1951 75.3652 50.6168 76.0156 52.1819C76.6661 53.7471 77.0018 55.4251 77.0036 57.12C77.0013 58.8147 76.6653 60.4923 76.0146 62.057C75.364 63.6218 74.4115 65.0431 73.2116 66.2398C72.0117 67.4364 70.5878 68.3851 69.0213 69.0314C67.4548 69.6778 65.7763 70.0093 64.0816 70.007H26.9326C25.238 70.0093 23.5595 69.6778 21.993 69.0314C20.4264 68.3851 19.0026 67.4364 17.8026 66.2398C16.6027 65.0431 15.6502 63.6218 14.9996 62.057C14.349 60.4923 14.0129 58.8147 14.0106 57.12C14.0125 55.4251 14.3482 53.7471 14.9986 52.1819C15.649 50.6168 16.6014 49.1951 17.8014 47.998C19.0014 46.801 20.4254 45.8521 21.9921 45.2055C23.5589 44.5589 25.2377 44.2272 26.9326 44.2295H27.2126C28.1331 35.3045 34.4191 28.0245 45.5071 28.0245ZM45.5071 33.2675C38.2586 33.2675 31.9376 38.983 31.9376 46.879C31.9376 48.1285 30.8211 49.112 29.5436 49.112H27.1286C22.7151 49.112 19.1346 52.6155 19.1346 56.938C19.1346 61.2605 22.7151 64.764 27.1286 64.764H63.8856C68.3026 64.764 71.8796 61.264 71.8796 56.938C71.8796 52.6155 68.3026 49.112 63.8891 49.112H61.4706C60.1931 49.112 59.0766 48.132 59.0766 46.879C59.0766 38.8815 52.7556 33.264 45.5071 33.264M15.2881 42.5635C15.5312 43.1501 15.5535 43.8049 15.3507 44.4066C15.148 45.0083 14.7341 45.5161 14.1856 45.836L13.8671 45.9935L10.6226 47.3375C10.0089 47.5877 9.32322 47.5964 8.7033 47.362C8.08339 47.1275 7.57509 46.6673 7.28047 46.0736C6.98584 45.4799 6.9267 44.7968 7.1149 44.1613C7.3031 43.5258 7.72472 42.985 8.29512 42.6475L8.61362 42.4865L11.8581 41.146C12.501 40.8793 13.2234 40.8789 13.8666 41.1447C14.5098 41.4105 15.0211 41.9208 15.2881 42.5635ZM37.9926 25.648L37.3906 25.851C35.5703 26.4891 33.8498 27.3823 32.2806 28.504C30.5955 27.9567 28.7818 27.9465 27.0907 28.475C25.3995 29.0036 23.9144 30.0446 22.8408 31.4542C21.7672 32.8637 21.1582 34.5721 21.0981 36.3429C21.0379 38.1137 21.5296 39.8594 22.5051 41.3385C20.7981 41.8173 19.1816 42.5741 17.7206 43.5785C16.1165 40.8213 15.5173 37.5935 16.025 34.4442C16.5327 31.295 18.116 28.419 20.5054 26.3056C22.8948 24.1922 25.9426 22.9721 29.1303 22.8529C32.318 22.7336 35.4485 23.7226 37.9891 25.6515M10.2901 25.76L10.6576 25.8825L13.9021 27.2265C14.5116 27.482 15.0022 27.9579 15.2761 28.5593C15.5501 29.1607 15.5871 29.8432 15.3799 30.4707C15.1726 31.0982 14.7364 31.6244 14.1581 31.9443C13.5799 32.2642 12.9023 32.3543 12.2606 32.1965L11.9001 32.081L8.65562 30.737C8.04619 30.4816 7.55552 30.0056 7.28159 29.4043C7.00767 28.8029 6.97063 28.1204 7.17787 27.4929C7.38511 26.8654 7.82139 26.3392 8.3996 26.0193C8.97781 25.6993 9.65541 25.6093 10.2971 25.767L10.2901 25.76ZM23.6426 15.309L23.8001 15.6275L25.1441 18.872C25.3943 19.4858 25.403 20.1714 25.1686 20.7914C24.9341 21.4113 24.4739 21.9196 23.8802 22.2142C23.2865 22.5088 22.6034 22.568 21.9679 22.3798C21.3324 22.1916 20.7916 21.7699 20.4541 21.1995L20.2931 20.881L18.9526 17.6365C18.7025 17.0228 18.6937 16.3371 18.9282 15.7172C19.1626 15.0973 19.6229 14.589 20.2165 14.2944C20.8102 13.9998 21.4934 13.9406 22.1289 14.1288C22.7644 14.317 23.3051 14.7386 23.6426 15.309ZM38.8816 14.1925C39.4627 14.4337 39.9379 14.8756 40.2205 15.4377C40.5032 15.9998 40.5745 16.6447 40.4216 17.255L40.2991 17.6225L38.9586 20.867C38.7071 21.4823 38.2314 21.9792 37.6278 22.2575C37.0241 22.5358 36.3374 22.5747 35.7061 22.3663C35.0749 22.158 34.5462 21.718 34.2268 21.135C33.9074 20.5521 33.821 19.8697 33.9851 19.2255L34.1076 18.8545L35.4516 15.6135C35.5835 15.295 35.7768 15.0055 36.0206 14.7617C36.2644 14.5179 36.5538 14.3245 36.8723 14.1926C37.1908 14.0606 37.5322 13.9927 37.8769 13.9927C38.2217 13.9927 38.5631 14.0606 38.8816 14.1925Z" fill="white"/>
</svg>
