<svg width="54" height="52" viewBox="0 0 54 52" fill="none" xmlns="http://www.w3.org/2000/svg">
<path d="M52.8815 25.537L28.3468 0.568654C28.1702 0.388392 27.9603 0.24538 27.7293 0.147803C27.4983 0.0502259 27.2507 0 27.0007 0C26.7506 0 26.503 0.0502259 26.272 0.147803C26.041 0.24538 25.8312 0.388392 25.6545 0.568654L1.11982 25.537C0.40504 26.265 0 27.2538 0 28.285C0 30.4264 1.70951 32.1674 3.81214 32.1674H6.39724V49.9837C6.39724 51.0574 7.24902 51.9249 8.30331 51.9249H23.1885V38.3367H29.8598V51.9249H45.698C46.7523 51.9249 47.6041 51.0574 47.6041 49.9837V32.1674H50.1892C51.2018 32.1674 52.1727 31.7609 52.8875 31.0269C54.3706 29.5104 54.3706 27.0536 52.8815 25.537Z" fill="#544747"/>
</svg>
