<svg width="53" height="48" viewBox="0 0 53 48" fill="none" xmlns="http://www.w3.org/2000/svg">
<path d="M16.1296 0L12.4376 3.76L19.2193 10.6667H5.23687C2.33041 10.6667 0 13.04 0 16V42.6666C0 45.6266 2.33041 48 5.23687 48H47.1319C50.0383 48 52.3687 45.6266 52.3687 42.6666V16C52.3687 13.04 50.0383 10.6667 47.1319 10.6667H33.1494L39.9312 3.76L36.2392 0L26.1844 10.24L16.1296 0ZM5.23687 16H39.2766V42.6666H5.23687V16ZM45.8227 16C46.5171 16 47.1831 16.2809 47.6742 16.781C48.1652 17.2811 48.4411 17.9594 48.4411 18.6667C48.4411 19.3739 48.1652 20.0522 47.6742 20.5523C47.1831 21.0524 46.5171 21.3333 45.8227 21.3333C45.1282 21.3333 44.4622 21.0524 43.9711 20.5523C43.4801 20.0522 43.2042 19.3739 43.2042 18.6667C43.2042 17.9594 43.4801 17.2811 43.9711 16.781C44.4622 16.2809 45.1282 16 45.8227 16ZM45.8227 24C46.5171 24 47.1831 24.2809 47.6742 24.781C48.1652 25.2811 48.4411 25.9594 48.4411 26.6667C48.4411 27.3739 48.1652 28.0522 47.6742 28.5523C47.1831 29.0524 46.5171 29.3333 45.8227 29.3333C45.1282 29.3333 44.4622 29.0524 43.9711 28.5523C43.4801 28.0522 43.2042 27.3739 43.2042 26.6667C43.2042 25.9594 43.4801 25.2811 43.9711 24.781C44.4622 24.2809 45.1282 24 45.8227 24Z" fill="#544747"/>
</svg>
