<svg width="40" height="41" viewBox="0 0 40 41" fill="none" xmlns="http://www.w3.org/2000/svg">
<path fill-rule="evenodd" clip-rule="evenodd" d="M6.31423 16.0799C6.31423 14.8129 6.55928 13.5583 7.03538 12.3878C7.51149 11.2172 8.20932 10.1537 9.08905 9.25777C9.96878 8.36187 11.0132 7.65121 12.1626 7.16636C13.312 6.68151 14.5439 6.43195 15.7881 6.43195C17.0322 6.43195 18.2641 6.68151 19.4135 7.16636C20.563 7.65121 21.6074 8.36187 22.4871 9.25777C23.3668 10.1537 24.0646 11.2172 24.5408 12.3878C25.0169 13.5583 25.2619 14.8129 25.2619 16.0799C25.2619 18.6387 24.2638 21.0927 22.4871 22.902C20.7104 24.7113 18.3007 25.7278 15.7881 25.7278C13.2754 25.7278 10.8657 24.7113 9.08905 22.902C7.31236 21.0927 6.31423 18.6387 6.31423 16.0799ZM15.7881 3.9116e-08C13.3259 0.000264607 10.8979 0.586899 8.6981 1.71304C6.49825 2.83919 4.58749 4.47363 3.11845 6.48582C1.64941 8.49801 0.662797 10.8322 0.237427 13.3019C-0.187943 15.7716 -0.0402849 18.3083 0.668608 20.7095C1.3775 23.1108 2.62798 25.3099 4.32016 27.1312C6.01234 28.9526 8.09933 30.3457 10.4144 31.1993C12.7295 32.0529 15.2085 32.3433 17.6535 32.0474C20.0984 31.7514 22.4415 30.8773 24.4956 29.4948L34.6073 39.7945C35.1997 40.3978 36.0032 40.7367 36.841 40.7367C37.6788 40.7367 38.4823 40.3978 39.0748 39.7945C39.6672 39.1912 40 38.3729 40 37.5197C40 36.6665 39.6672 35.8483 39.0748 35.245L28.9609 24.9474C30.5342 22.5239 31.4332 19.7115 31.5626 16.8093C31.692 13.907 31.0469 11.0232 29.6958 8.46447C28.3447 5.9057 26.3381 3.7675 23.8893 2.2771C21.4405 0.786707 18.6409 -0.000202572 15.7881 3.9116e-08Z" fill="#544747"/>
</svg>
