<svg width="51" height="48" viewBox="0 0 51 48" fill="none" xmlns="http://www.w3.org/2000/svg">
<path d="M47.1602 10.6606L21.8975 17.5771C21.601 17.7381 21.2606 17.8325 20.9086 17.8514L12.2309 20.2229H48.3222C48.8686 20.2229 49.3926 20.4058 49.779 20.7314C50.1654 21.0569 50.3824 21.4985 50.3824 21.959V39.3197C50.3824 41.6219 49.2971 43.8298 47.3653 45.4576C45.4334 47.0855 42.8133 48.0001 40.0812 48.0001H11.2379C8.50581 48.0001 5.88566 47.0855 3.95381 45.4576C2.02196 43.8298 0.936655 41.6219 0.936655 39.3197V21.959C0.936655 21.5909 1.07263 21.2472 1.3075 20.9625L0.504004 18.8722C-0.340031 16.6828 -0.117456 14.3006 1.12277 12.2495C2.36299 10.1984 4.51929 8.64644 7.11738 7.93495L34.5474 0.424702C37.1456 -0.286529 39.9727 -0.0989755 42.4067 0.946107C44.8408 1.99119 46.6826 3.80821 47.5269 5.9975L48.4829 8.47314C48.6517 8.91101 48.6072 9.38746 48.3591 9.79768C48.1111 10.2079 47.6798 10.5183 47.1602 10.6606ZM31.7331 11.2335L37.0279 3.5045C36.6178 3.54458 36.2133 3.61902 35.8206 3.72671L30.6906 5.12946L25.3011 12.9939L31.729 11.2335M41.1855 4.36212C41.1601 4.40587 41.1326 4.44873 41.1031 4.49059L37.5842 9.62936L43.9215 7.89329L43.6042 7.07039C43.1806 5.96488 42.3289 5.01119 41.1855 4.36212ZM24.8272 6.73359L18.3993 8.49397L13.0097 16.3584L19.4376 14.598L24.8354 6.73359M4.73986 18.6257L7.15858 17.966L12.5441 10.0981L8.39061 11.237C6.83176 11.6639 5.53798 12.595 4.79384 13.8257C4.04971 15.0564 3.91616 16.4857 4.42258 17.7993L4.73986 18.6257ZM5.05714 23.695V39.3197C5.05714 40.701 5.70832 42.0257 6.86743 43.0025C8.02654 43.9792 9.59863 44.5279 11.2379 44.5279H40.0812C41.7205 44.5279 43.2925 43.9792 44.4517 43.0025C45.6108 42.0257 46.262 40.701 46.262 39.3197V23.695H5.05714Z" fill="#544747"/>
</svg>
